<svg xmlns="http://www.w3.org/2000/svg" width="760" height="520" viewBox="0 0 760 520">
  <rect width="100%" height="100%" fill="#ffffff"/>
  <text x="380.0" y="32" text-anchor="middle" font-family="Arial" font-size="22" font-weight="700">Zero-Shot Score vs Experimental Fitness</text>
  <line x1="70" y1="450" x2="690" y2="450" stroke="#222" stroke-width="1.5"/>
  <line x1="70" y1="70" x2="70" y2="450" stroke="#222" stroke-width="1.5"/>
  <text x="380.0" y="498" text-anchor="middle" font-family="Arial" font-size="15">Placeholder model score</text>
  <text x="22" y="260.0" transform="rotate(-90 22 260.0)" text-anchor="middle" font-family="Arial" font-size="15">Experimental fitness</text>
  <text x="70" y="474" text-anchor="middle" font-family="Arial" font-size="12">0.57</text>
  <text x="690" y="474" text-anchor="middle" font-family="Arial" font-size="12">0.88</text>
  <text x="58" y="454" text-anchor="end" font-family="Arial" font-size="12">0.05</text>
  <text x="58" y="74" text-anchor="end" font-family="Arial" font-size="12">0.82</text>
  <circle cx="70.00" cy="450.00" r="7" fill="#d64f45" fill-opacity="0.82"><title>H4A: fitness=0.05, score=0.57</title></circle><circle cx="70.00" cy="385.84" r="7" fill="#d64f45" fill-opacity="0.82"><title>H4Y: fitness=0.18, score=0.57</title></circle><circle cx="190.00" cy="415.45" r="7" fill="#d64f45" fill-opacity="0.82"><title>C6G: fitness=0.12, score=0.63</title></circle><circle cx="650.00" cy="366.10" r="7" fill="#d64f45" fill-opacity="0.82"><title>C6S: fitness=0.22, score=0.86</title></circle><circle cx="530.00" cy="435.19" r="7" fill="#d64f45" fill-opacity="0.82"><title>L14A: fitness=0.08, score=0.80</title></circle><circle cx="530.00" cy="301.95" r="7" fill="#d64f45" fill-opacity="0.82"><title>L14I: fitness=0.35, score=0.80</title></circle><circle cx="650.00" cy="99.61" r="5" fill="#3478bf" fill-opacity="0.82"><title>M1V: fitness=0.76, score=0.86</title></circle><circle cx="150.00" cy="70.00" r="5" fill="#3478bf" fill-opacity="0.82"><title>S2A: fitness=0.82, score=0.61</title></circle><circle cx="610.00" cy="188.44" r="5" fill="#3478bf" fill-opacity="0.82"><title>D7E: fitness=0.58, score=0.84</title></circle><circle cx="570.00" cy="124.29" r="5" fill="#3478bf" fill-opacity="0.82"><title>E8D: fitness=0.71, score=0.82</title></circle><circle cx="530.00" cy="134.16" r="5" fill="#3478bf" fill-opacity="0.82"><title>F9Y: fitness=0.69, score=0.80</title></circle><circle cx="690.00" cy="168.70" r="5" fill="#3478bf" fill-opacity="0.82"><title>G10A: fitness=0.62, score=0.88</title></circle><circle cx="190.00" cy="203.25" r="5" fill="#3478bf" fill-opacity="0.82"><title>H11Y: fitness=0.55, score=0.63</title></circle><circle cx="610.00" cy="114.42" r="5" fill="#3478bf" fill-opacity="0.82"><title>I12V: fitness=0.73, score=0.84</title></circle><circle cx="690.00" cy="74.94" r="5" fill="#3478bf" fill-opacity="0.82"><title>M15L: fitness=0.81, score=0.88</title></circle><circle cx="190.00" cy="218.05" r="5" fill="#3478bf" fill-opacity="0.82"><title>N16D: fitness=0.52, score=0.63</title></circle><circle cx="610.00" cy="242.73" r="5" fill="#3478bf" fill-opacity="0.82"><title>P17A: fitness=0.47, score=0.84</title></circle><circle cx="110.00" cy="139.09" r="5" fill="#3478bf" fill-opacity="0.82"><title>Q18E: fitness=0.68, score=0.59</title></circle><circle cx="530.00" cy="109.48" r="5" fill="#3478bf" fill-opacity="0.82"><title>R19K: fitness=0.74, score=0.80</title></circle><circle cx="190.00" cy="84.81" r="5" fill="#3478bf" fill-opacity="0.82"><title>T21I: fitness=0.79, score=0.63</title></circle>
  <circle cx="555" cy="72" r="7" fill="#d64f45" fill-opacity="0.82"/>
  <text x="572" y="77" font-family="Arial" font-size="13">Catalytic mutation</text>
  <circle cx="555" cy="96" r="5" fill="#3478bf" fill-opacity="0.82"/>
  <text x="572" y="101" font-family="Arial" font-size="13">Non-catalytic mutation</text>
</svg>
